HIERARCHY
ROOT Hips
{
	OFFSET 0.000000 0.000000 0.000000
	CHANNELS 6 Xposition Yposition Zposition Zrotation Yrotation Xrotation 
	JOINT LHipJoint
	{
		OFFSET 0.000000 0.000000 0.000000
		CHANNELS 3 Zrotation Yrotation Xrotation
		JOINT LeftUpLeg
		{
			OFFSET 1.363060 -1.794630 0.839290
			CHANNELS 3 Zrotation Yrotation Xrotation
			JOINT LeftLeg
			{
				OFFSET 2.448110 -6.726130 0.000000
				CHANNELS 3 Zrotation Yrotation Xrotation
				JOINT LeftFoot
				{
					OFFSET 2.562200 -7.039590 0.000000
					CHANNELS 3 Zrotation Yrotation Xrotation
					JOINT LeftToeBase
					{
						OFFSET 0.157640 -0.433110 2.322550
						CHANNELS 3 Zrotation Yrotation Xrotation
						End Site
						{
							OFFSET 0.000000 0.000000 0.000000
						}
					}
				}
			}
		}
	}
	JOINT RHipJoint
	{
		OFFSET 0.000000 0.000000 0.000000
		CHANNELS 3 Zrotation Yrotation Xrotation
		JOINT RightUpLeg
		{
			OFFSET -1.305520 -1.794630 0.839290
			CHANNELS 3 Zrotation Yrotation Xrotation
			JOINT RightLeg
			{
				OFFSET -2.542530 -6.985550 0.000000
				CHANNELS 3 Zrotation Yrotation Xrotation
				JOINT RightFoot
				{
					OFFSET -2.568260 -7.056230 0.000000
					CHANNELS 3 Zrotation Yrotation Xrotation
					JOINT RightToeBase
					{
						OFFSET -0.164730 -0.452590 2.363150
						CHANNELS 3 Zrotation Yrotation Xrotation
						End Site
						{
							OFFSET 0.000000 0.000000 0.000000
						}
					}
				}
			}
		}
	}
}
MOTION
Frames: 25
Frame Time: 0.008333
-2.584223 15.616628 -1.254495 -149.992856 78.499539 -123.528594 -13.795094 -0.282525 -5.401866 -8.884909 5.764099 -28.763378 -0.426123 3.961400 63.243175 1.569733 7.846218 -19.776469 -1.792800 -0.000000 -54.867300 5.805982 0.425930 -1.714543 16.577594 2.665509 -65.750886 3.647179 -4.200814 38.425650 2.210789 14.076734 5.244341 2.943599 0.000000 -53.318699
-2.398586 15.561631 -1.278653 -150.885694 77.947782 -124.855113 -13.945259 -0.198900 -5.513523 -8.455048 6.435235 -28.494784 -0.247101 4.124278 64.592297 1.565754 8.178054 -18.723033 -1.679800 -0.000000 -55.419500 5.852158 0.515050 -1.949854 16.498064 2.330090 -65.809580 3.337201 -4.435152 41.366146 2.081794 13.637000 3.863078 2.558400 -0.000001 -49.529501
-2.217209 15.508778 -1.306114 -151.639754 77.330773 -126.058061 -14.112366 -0.135337 -5.617397 -7.942334 7.092773 -28.293463 -0.048984 4.292763 65.992562 1.574334 8.576448 -17.546057 -1.550400 -0.000001 -55.147300 5.882640 0.587733 -2.221531 16.576592 1.868026 -65.795849 3.064780 -4.653902 44.262490 1.956684 13.237500 2.304881 2.161700 0.000000 -46.166399
-2.040319 15.459531 -1.336813 -152.223207 76.654839 -127.088576 -14.295593 -0.097135 -5.711194 -7.346559 7.720481 -28.176423 0.164487 4.464965 67.426262 1.597053 9.035343 -16.266458 -1.402400 -0.000000 -53.878900 5.893551 0.634929 -2.515671 16.801284 1.314299 -65.691875 2.837296 -4.849552 46.986191 1.837996 12.877691 0.650122 1.770200 0.000000 -43.502800
-1.867994 15.414978 -1.370260 -152.641625 75.933010 -127.937938 -14.490647 -0.086408 -5.793365 -6.680401 8.304636 -28.157289 0.386819 4.639483 68.880285 1.635212 9.545751 -14.945210 -1.240400 0.000000 -51.303900 5.884384 0.652167 -2.819855 17.149968 0.702233 -65.492672 2.655906 -5.018669 49.455727 1.726299 12.552104 -1.036287 1.395700 -0.000000 -41.672500
-1.700075 15.375928 -1.405847 -152.917419 75.179251 -128.616584 -14.691421 -0.103529 -5.862544 -5.964808 8.834592 -28.247795 0.611262 4.814628 70.339327 1.688930 10.098994 -13.649828 -1.071200 0.000000 -47.390700 5.856645 0.638694 -3.122032 17.592494 0.065620 -65.202365 2.517696 -5.159863 51.625350 1.620422 12.248298 -2.702066 1.046300 -0.000000 -40.684500
-1.536236 15.342746 -1.442721 -153.098028 74.410061 -129.163437 -14.889397 -0.145967 -5.918725 -5.230227 9.303578 -28.454103 0.830783 4.988938 71.790787 1.757125 10.686946 -12.466498 -0.907000 0.000000 -42.140900 5.815189 0.598077 -3.412200 18.092769 -0.568743 -64.830810 2.416782 -5.273527 53.481880 1.518455 11.952385 -4.306941 0.728200 0.000000 -40.432999
-1.376122 15.315473 -1.480136 -153.230075 73.640004 -129.620252 -15.075770 -0.210062 -5.962308 -4.511671 9.707487 -28.777500 1.040710 5.160124 73.219101 1.837997 11.306597 -11.455276 -0.758301 -0.000000 -35.919499 5.766465 0.536405 -3.681921 18.611405 -1.179133 -64.391597 2.345771 -5.361286 55.035189 1.418237 11.648941 -5.819728 0.446099 -0.000000 -40.741200
-1.219263 15.293904 -1.517291 -153.368300 72.884390 -130.038088 -15.241545 -0.290874 -5.993895 -3.846981 10.042354 -29.214553 1.239037 5.325093 74.608375 1.929943 11.960512 -10.635517 -0.630200 -0.000000 -29.401500 5.718524 0.462044 -3.924845 19.107882 -1.749618 -63.900771 2.296230 -5.425715 56.312467 1.317880 11.323135 -7.217263 0.203400 0.000000 -41.395999
-1.065203 15.277643 -1.553572 -153.561053 72.156646 -130.463479 -15.379328 -0.382805 -6.014450 -3.271809 10.306155 -29.759838 1.425386 5.480986 75.950982 2.031321 12.649777 -10.009009 -0.526000 -0.000000 -23.286900 5.679342 0.383781 -4.136487 19.545795 -2.269632 -63.376221 2.259715 -5.470169 57.352475 1.216087 10.962792 -8.484472 0.001900 -0.000000 -42.182800
-0.913611 15.266230 -1.588652 -153.846085 71.467270 -130.933257 -15.483695 -0.480277 -6.025210 -2.819381 10.497921 -30.406615 1.600648 5.624928 77.245230 2.140747 13.374002 -9.558786 -0.445700 0.000000 -18.189200 5.656179 0.310099 -4.314176 19.892626 -2.733909 -62.837023 2.228354 -5.498594 58.200407 1.112264 10.560026 -9.613427 -0.157900 0.000001 -42.924000
-0.764206 15.259150 -1.622462 -154.253111 70.823716 -131.478017 -15.551188 -0.577587 -6.028953 -2.517537 10.622717 -31.149082 1.764543 5.755642 78.498455 2.256041 14.124484 -9.303171 -0.397800 -0.000000 -14.262701 5.655164 0.248254 -4.457221 20.123532 -3.143902 -62.301440 2.195498 -5.515250 58.903245 1.006636 10.113270 -10.603091 -0.277700 -0.000001 -43.503600
-0.616908 15.255996 -1.654977 -154.804967 70.231442 -132.122317 -15.579992 -0.669870 -6.029383 -2.386130 10.690268 -31.981954 1.916146 5.872849 79.718041 2.374786 14.888168 -9.272773 -0.395400 0.000000 -11.359100 5.680835 0.203967 -4.566702 20.221888 -3.505764 -61.785977 2.156189 -5.524287 59.504756 0.900131 9.627247 -11.458853 -0.361200 0.000000 -43.883100
-0.471649 15.256395 -1.687039 -155.477506 69.683655 -132.844295 -15.576551 -0.756568 -6.027246 -2.413470 10.716689 -32.906588 2.054919 5.978749 80.907414 2.493943 15.643872 -9.487419 -0.451600 0.000000 -9.227800 5.729020 0.175915 -4.644966 20.202324 -3.823436 -61.300498 2.108675 -5.528227 60.037110 0.793688 9.108477 -12.189845 -0.413000 0.000000 -44.055300
-0.328796 15.260097 -1.718941 -156.278572 69.179493 -133.656236 -15.540530 -0.835863 -6.026125 -2.608443 10.710526 -33.912214 2.180452 6.072271 82.059343 2.612714 16.382412 -9.926534 -0.570500 -0.000001 -7.800200 5.801648 0.167211 -4.697170 20.058310 -4.113636 -60.854525 2.052118 -5.530750 60.528504 0.689389 8.573678 -12.809784 -0.439200 -0.000001 -44.126000
-0.188428 15.266985 -1.751376 -157.180627 68.710810 -134.533987 -15.478755 -0.909033 -6.025958 -2.947529 10.685824 -34.995487 2.291427 6.155586 83.163190 2.729112 17.084549 -10.576739 -0.756900 0.000000 -6.774501 5.892472 0.174304 -4.728988 19.815833 -4.388862 -60.449830 1.988401 -5.533396 60.994086 0.589208 8.040011 -13.333966 -0.446300 0.000000 -44.163000
-0.050971 15.277022 -1.785066 -158.156394 68.267840 -135.454869 -15.395995 -0.978420 -6.027074 -3.410898 10.650448 -36.147505 2.387587 6.228971 84.200692 2.842387 17.739992 -11.374750 -0.999500 0.000000 -6.199000 5.996429 0.194386 -4.747102 19.493934 -4.663237 -60.083584 1.920697 -5.537366 61.437518 0.495150 7.524701 -13.776228 -0.440000 0.000000 -44.298000
0.083265 15.290202 -1.820564 -159.174153 67.841562 -136.391578 -15.297560 -1.046431 -6.028839 -3.972029 10.612098 -37.360169 2.467831 6.293587 85.151800 2.951264 18.337314 -12.268576 -1.286399 -0.000000 -5.951600 6.107267 0.223400 -4.758233 19.118375 -4.950091 -59.749153 1.852871 -5.543032 61.855979 0.409200 7.044680 -14.149196 -0.425699 -0.000000 -44.617100
0.214128 15.306557 -1.858339 -160.203879 67.424225 -137.318662 -15.187594 -1.115384 -6.030748 -4.604928 10.576761 -38.624324 2.531049 6.350403 85.995356 3.054652 18.869405 -13.204085 -1.601400 -0.000000 -5.929799 6.219462 0.257613 -4.768545 18.712266 -5.260025 -59.436831 1.788797 -5.550160 62.240624 0.333141 6.614279 -14.461564 -0.407500 0.000000 -45.184900
0.341363 15.325967 -1.898865 -161.210185 67.007587 -138.205932 -15.070132 -1.187627 -6.031946 -5.282992 10.549263 -39.930897 2.576571 6.400400 86.711999 3.151493 19.332597 -14.128869 -1.925800 0.000000 -6.073000 6.327567 0.293027 -4.783110 18.297857 -5.599265 -59.134341 1.731977 -5.557904 62.579247 0.268137 6.242536 -14.718069 -0.388700 0.000001 -46.029000
0.465090 15.348418 -1.942323 -162.167356 66.587649 -139.031967 -14.947740 -1.264580 -6.032128 -5.982248 10.535092 -41.272572 2.603249 6.445085 87.286372 3.240874 19.724967 -15.014480 -2.246700 -0.000000 -6.207900 6.427536 0.326466 -4.805490 17.893945 -5.969440 -58.829095 1.684980 -5.564894 62.858350 0.215004 5.934840 -14.918958 -0.371200 0.000000 -47.136300
0.585294 15.373570 -1.988582 -163.065590 66.163781 -139.793519 -14.820201 -1.345976 -6.031892 -6.692250 10.536332 -42.635479 2.610908 6.484114 87.705855 3.323146 20.055141 -15.822127 -2.547600 -0.000000 -6.410300 6.519206 0.357134 -4.838582 17.504802 -6.373726 -58.509718 1.648387 -5.570740 63.072770 0.174515 5.694505 -15.060049 -0.356700 -0.000000 -48.462700
0.702276 15.401200 -2.037921 -163.877274 65.732901 -140.466253 -14.690189 -1.432501 -6.030852 -7.392192 10.559587 -44.016935 2.598607 6.519927 87.967140 3.397998 20.322925 -16.563933 -2.828400 0.000000 -6.432000 6.599215 0.381705 -4.882419 17.146123 -6.803334 -58.164956 1.622927 -5.573354 63.211428 0.146295 5.517562 -15.134907 -0.345100 0.000000 -49.932400
0.816301 15.430897 -2.090168 -164.600050 65.296030 -141.052849 -14.557080 -1.522808 -6.029589 -8.077438 10.607290 -45.408182 2.566183 6.553022 88.070584 3.466590 20.537374 -17.244199 -3.088300 -0.000000 -6.268800 6.668700 0.399884 -4.936590 16.817230 -7.253547 -57.787587 1.607251 -5.572123 63.274878 0.130133 5.400248 -15.135607 -0.336600 0.000000 -51.460400
0.927691 15.462234 -2.145306 -165.232031 64.853865 -141.554715 -14.420531 -1.615389 -6.028333 -8.746327 10.680844 -46.804420 2.513459 6.584238 88.022319 3.530270 20.705306 -17.885702 -3.333700 -0.000000 -5.879400 6.728870 0.411324 -4.999482 16.516458 -7.717260 -57.373604 1.599464 -5.566551 63.266711 0.125489 5.337008 -15.054061 -0.330600 0.000000 -52.963200
